<svg width="184" height="29" viewBox="0 0 184 29" fill="none" xmlns="http://www.w3.org/2000/svg">
<path d="M52.713 8.14V22H49.815V8.14H52.713ZM43.704 8.14V22H40.806V8.14H43.704ZM51.327 13.831V16.162H42.255V13.831H51.327ZM61.9394 15.301C61.9394 14.699 61.7644 14.23 61.4144 13.894C61.0784 13.558 60.6304 13.39 60.0704 13.39C59.5524 13.39 59.0974 13.523 58.7054 13.789C58.3134 14.055 58.0264 14.496 57.8444 15.112L55.3874 14.356C55.6254 13.432 56.1434 12.69 56.9414 12.13C57.7534 11.57 58.8384 11.29 60.1964 11.29C61.1204 11.29 61.9254 11.437 62.6114 11.731C63.2974 12.011 63.8294 12.438 64.2074 13.012C64.5994 13.586 64.7954 14.307 64.7954 15.175V19.438C64.7954 19.97 65.0474 20.236 65.5514 20.236C65.7894 20.236 66.0134 20.201 66.2234 20.131L66.0554 21.916C65.6914 22.098 65.2364 22.189 64.6904 22.189C64.2004 22.189 63.7594 22.105 63.3674 21.937C62.9754 21.769 62.6674 21.517 62.4434 21.181C62.2194 20.831 62.1074 20.397 62.1074 19.879V19.795L62.6114 19.711C62.5274 20.243 62.2964 20.698 61.9184 21.076C61.5404 21.44 61.0784 21.72 60.5324 21.916C60.0004 22.112 59.4474 22.21 58.8734 22.21C58.1594 22.21 57.5434 22.105 57.0254 21.895C56.5074 21.671 56.1084 21.349 55.8284 20.929C55.5484 20.509 55.4084 19.991 55.4084 19.375C55.4084 18.591 55.6604 17.954 56.1644 17.464C56.6684 16.96 57.3894 16.617 58.3274 16.435L62.2754 15.637L62.2544 17.422L59.7344 17.926C59.2584 18.024 58.8944 18.157 58.6424 18.325C58.4044 18.479 58.2854 18.738 58.2854 19.102C58.2854 19.452 58.4114 19.718 58.6634 19.9C58.9294 20.082 59.2444 20.173 59.6084 20.173C59.9024 20.173 60.1894 20.138 60.4694 20.068C60.7494 19.998 61.0014 19.886 61.2254 19.732C61.4494 19.578 61.6244 19.368 61.7504 19.102C61.8764 18.836 61.9394 18.514 61.9394 18.136V15.301ZM74.187 22.21C73.543 22.21 72.955 22.077 72.423 21.811C71.905 21.531 71.471 21.153 71.121 20.677C70.785 20.187 70.554 19.641 70.428 19.039L70.722 18.661L70.554 22H68.013V6.901H70.89V14.461L70.617 14.02C70.841 13.236 71.268 12.585 71.898 12.067C72.528 11.549 73.319 11.29 74.271 11.29C75.097 11.29 75.846 11.507 76.518 11.941C77.19 12.375 77.715 12.998 78.093 13.81C78.485 14.622 78.681 15.609 78.681 16.771C78.681 17.905 78.485 18.878 78.093 19.69C77.715 20.502 77.183 21.125 76.497 21.559C75.825 21.993 75.055 22.21 74.187 22.21ZM73.326 20.005C74.096 20.005 74.698 19.732 75.132 19.186C75.58 18.626 75.804 17.814 75.804 16.75C75.804 15.686 75.587 14.881 75.153 14.335C74.719 13.775 74.117 13.495 73.347 13.495C72.843 13.495 72.409 13.628 72.045 13.894C71.681 14.16 71.394 14.538 71.184 15.028C70.988 15.518 70.89 16.099 70.89 16.771C70.89 17.457 70.988 18.045 71.184 18.535C71.394 19.011 71.681 19.375 72.045 19.627C72.423 19.879 72.85 20.005 73.326 20.005ZM82.628 9.988C82.026 9.988 81.578 9.862 81.284 9.61C80.99 9.344 80.843 8.959 80.843 8.455C80.843 7.937 80.99 7.552 81.284 7.3C81.578 7.034 82.026 6.901 82.628 6.901C83.23 6.901 83.678 7.034 83.972 7.3C84.266 7.552 84.413 7.937 84.413 8.455C84.413 8.959 84.266 9.344 83.972 9.61C83.678 9.862 83.23 9.988 82.628 9.988ZM84.056 11.5V22H81.179V11.5H84.056ZM90.8228 8.287V18.577C90.8228 19.081 90.9488 19.452 91.2008 19.69C91.4668 19.914 91.8238 20.026 92.2718 20.026C92.6218 20.026 92.9298 19.977 93.1958 19.879C93.4618 19.767 93.6998 19.62 93.9098 19.438L94.3718 21.349C94.0358 21.615 93.6158 21.825 93.1118 21.979C92.6078 22.133 92.0758 22.21 91.5158 22.21C90.8158 22.21 90.1928 22.105 89.6468 21.895C89.1148 21.685 88.6948 21.349 88.3868 20.887C88.0928 20.425 87.9458 19.809 87.9458 19.039V9.085L90.8228 8.287ZM94.1828 11.5V13.642H86.0138V11.5H94.1828ZM100.329 22.21C99.2652 22.21 98.2922 22.021 97.4102 21.643C96.5422 21.265 95.8352 20.733 95.2892 20.047L96.9482 18.367C97.2842 18.871 97.7322 19.284 98.2922 19.606C98.8522 19.928 99.5172 20.089 100.287 20.089C100.833 20.089 101.267 20.012 101.589 19.858C101.925 19.69 102.093 19.431 102.093 19.081C102.093 18.857 102.016 18.668 101.862 18.514C101.708 18.346 101.4 18.213 100.938 18.115L99.0902 17.737C97.8722 17.485 97.0042 17.107 96.4862 16.603C95.9822 16.085 95.7302 15.42 95.7302 14.608C95.7302 14.034 95.8982 13.495 96.2342 12.991C96.5842 12.487 97.1022 12.081 97.7882 11.773C98.4742 11.451 99.3282 11.29 100.35 11.29C101.4 11.29 102.31 11.458 103.08 11.794C103.864 12.116 104.48 12.599 104.928 13.243L103.206 14.923C102.898 14.433 102.492 14.062 101.988 13.81C101.498 13.544 100.98 13.411 100.434 13.411C100.042 13.411 99.7062 13.453 99.4262 13.537C99.1462 13.621 98.9362 13.74 98.7962 13.894C98.6562 14.034 98.5862 14.216 98.5862 14.44C98.5862 14.664 98.6842 14.86 98.8802 15.028C99.0762 15.182 99.4332 15.315 99.9512 15.427L102.093 15.868C103.129 16.078 103.871 16.435 104.319 16.939C104.767 17.429 104.991 18.024 104.991 18.724C104.991 19.396 104.809 19.998 104.445 20.53C104.095 21.048 103.57 21.461 102.87 21.769C102.184 22.063 101.337 22.21 100.329 22.21Z" fill="#32A3B2"/>
<path d="M118.541 8.14V10.471H113.9V22H111.002V10.471H106.34V8.14H118.541ZM119.241 22V11.5H121.74L121.929 13.558C122.209 12.83 122.615 12.27 123.147 11.878C123.693 11.486 124.372 11.29 125.184 11.29C125.422 11.29 125.639 11.311 125.835 11.353C126.031 11.395 126.192 11.451 126.318 11.521L125.982 13.936C125.842 13.88 125.667 13.838 125.457 13.81C125.261 13.782 125.002 13.768 124.68 13.768C124.26 13.768 123.854 13.873 123.462 14.083C123.07 14.279 122.748 14.587 122.496 15.007C122.244 15.413 122.118 15.931 122.118 16.561V22H119.241ZM133.901 15.301C133.901 14.699 133.726 14.23 133.376 13.894C133.04 13.558 132.592 13.39 132.032 13.39C131.514 13.39 131.059 13.523 130.667 13.789C130.275 14.055 129.988 14.496 129.806 15.112L127.349 14.356C127.587 13.432 128.105 12.69 128.903 12.13C129.715 11.57 130.8 11.29 132.158 11.29C133.082 11.29 133.887 11.437 134.573 11.731C135.259 12.011 135.791 12.438 136.169 13.012C136.561 13.586 136.757 14.307 136.757 15.175V19.438C136.757 19.97 137.009 20.236 137.513 20.236C137.751 20.236 137.975 20.201 138.185 20.131L138.017 21.916C137.653 22.098 137.198 22.189 136.652 22.189C136.162 22.189 135.721 22.105 135.329 21.937C134.937 21.769 134.629 21.517 134.405 21.181C134.181 20.831 134.069 20.397 134.069 19.879V19.795L134.573 19.711C134.489 20.243 134.258 20.698 133.88 21.076C133.502 21.44 133.04 21.72 132.494 21.916C131.962 22.112 131.409 22.21 130.835 22.21C130.121 22.21 129.505 22.105 128.987 21.895C128.469 21.671 128.07 21.349 127.79 20.929C127.51 20.509 127.37 19.991 127.37 19.375C127.37 18.591 127.622 17.954 128.126 17.464C128.63 16.96 129.351 16.617 130.289 16.435L134.237 15.637L134.216 17.422L131.696 17.926C131.22 18.024 130.856 18.157 130.604 18.325C130.366 18.479 130.247 18.738 130.247 19.102C130.247 19.452 130.373 19.718 130.625 19.9C130.891 20.082 131.206 20.173 131.57 20.173C131.864 20.173 132.151 20.138 132.431 20.068C132.711 19.998 132.963 19.886 133.187 19.732C133.411 19.578 133.586 19.368 133.712 19.102C133.838 18.836 133.901 18.514 133.901 18.136V15.301ZM144.701 11.29C145.639 11.29 146.43 11.43 147.074 11.71C147.732 11.976 148.257 12.347 148.649 12.823C149.055 13.285 149.342 13.803 149.51 14.377L146.822 15.343C146.682 14.713 146.444 14.237 146.108 13.915C145.772 13.593 145.317 13.432 144.743 13.432C144.211 13.432 143.756 13.558 143.378 13.81C143 14.048 142.713 14.419 142.517 14.923C142.321 15.413 142.223 16.029 142.223 16.771C142.223 17.513 142.321 18.129 142.517 18.619C142.727 19.109 143.021 19.473 143.399 19.711C143.791 19.949 144.246 20.068 144.764 20.068C145.184 20.068 145.541 19.998 145.835 19.858C146.129 19.704 146.367 19.487 146.549 19.207C146.745 18.927 146.878 18.591 146.948 18.199L149.552 19.039C149.398 19.669 149.111 20.222 148.691 20.698C148.271 21.174 147.732 21.545 147.074 21.811C146.416 22.077 145.653 22.21 144.785 22.21C143.707 22.21 142.755 21.993 141.929 21.559C141.103 21.125 140.466 20.502 140.018 19.69C139.57 18.878 139.346 17.898 139.346 16.75C139.346 15.602 139.57 14.622 140.018 13.81C140.466 12.998 141.096 12.375 141.908 11.941C142.72 11.507 143.651 11.29 144.701 11.29ZM162.476 11.5L157.625 16.561L157.058 16.834L153.908 20.215L153.866 17.149L159.2 11.5H162.476ZM154.664 6.901V22H151.787V6.901H154.664ZM158.024 14.839L162.728 22H159.473L156.05 16.519L158.024 14.839ZM168.8 22.21C167.694 22.21 166.728 21.993 165.902 21.559C165.09 21.125 164.46 20.502 164.012 19.69C163.564 18.878 163.34 17.898 163.34 16.75C163.34 15.602 163.564 14.622 164.012 13.81C164.46 12.998 165.083 12.375 165.881 11.941C166.693 11.507 167.617 11.29 168.653 11.29C169.717 11.29 170.62 11.507 171.362 11.941C172.104 12.361 172.671 12.942 173.063 13.684C173.455 14.412 173.651 15.245 173.651 16.183C173.651 16.463 173.644 16.729 173.63 16.981C173.616 17.233 173.595 17.457 173.567 17.653H165.188V15.658H172.307L170.921 16.162C170.921 15.28 170.718 14.601 170.312 14.125C169.92 13.649 169.36 13.411 168.632 13.411C168.1 13.411 167.638 13.537 167.246 13.789C166.868 14.041 166.581 14.419 166.385 14.923C166.189 15.413 166.091 16.036 166.091 16.792C166.091 17.534 166.196 18.15 166.406 18.64C166.63 19.116 166.938 19.473 167.33 19.711C167.736 19.949 168.219 20.068 168.779 20.068C169.395 20.068 169.892 19.949 170.27 19.711C170.648 19.473 170.942 19.144 171.152 18.724L173.441 19.606C173.217 20.152 172.874 20.621 172.412 21.013C171.964 21.405 171.425 21.706 170.795 21.916C170.179 22.112 169.514 22.21 168.8 22.21ZM176.089 22V11.5H178.588L178.777 13.558C179.057 12.83 179.463 12.27 179.995 11.878C180.541 11.486 181.22 11.29 182.032 11.29C182.27 11.29 182.487 11.311 182.683 11.353C182.879 11.395 183.04 11.451 183.166 11.521L182.83 13.936C182.69 13.88 182.515 13.838 182.305 13.81C182.109 13.782 181.85 13.768 181.528 13.768C181.108 13.768 180.702 13.873 180.31 14.083C179.918 14.279 179.596 14.587 179.344 15.007C179.092 15.413 178.966 15.931 178.966 16.561V22H176.089Z" fill="#252626"/>
<path d="M52.713 8.14V22H49.815V8.14H52.713ZM43.704 8.14V22H40.806V8.14H43.704ZM51.327 13.831V16.162H42.255V13.831H51.327ZM61.9394 15.301C61.9394 14.699 61.7644 14.23 61.4144 13.894C61.0784 13.558 60.6304 13.39 60.0704 13.39C59.5524 13.39 59.0974 13.523 58.7054 13.789C58.3134 14.055 58.0264 14.496 57.8444 15.112L55.3874 14.356C55.6254 13.432 56.1434 12.69 56.9414 12.13C57.7534 11.57 58.8384 11.29 60.1964 11.29C61.1204 11.29 61.9254 11.437 62.6114 11.731C63.2974 12.011 63.8294 12.438 64.2074 13.012C64.5994 13.586 64.7954 14.307 64.7954 15.175V19.438C64.7954 19.97 65.0474 20.236 65.5514 20.236C65.7894 20.236 66.0134 20.201 66.2234 20.131L66.0554 21.916C65.6914 22.098 65.2364 22.189 64.6904 22.189C64.2004 22.189 63.7594 22.105 63.3674 21.937C62.9754 21.769 62.6674 21.517 62.4434 21.181C62.2194 20.831 62.1074 20.397 62.1074 19.879V19.795L62.6114 19.711C62.5274 20.243 62.2964 20.698 61.9184 21.076C61.5404 21.44 61.0784 21.72 60.5324 21.916C60.0004 22.112 59.4474 22.21 58.8734 22.21C58.1594 22.21 57.5434 22.105 57.0254 21.895C56.5074 21.671 56.1084 21.349 55.8284 20.929C55.5484 20.509 55.4084 19.991 55.4084 19.375C55.4084 18.591 55.6604 17.954 56.1644 17.464C56.6684 16.96 57.3894 16.617 58.3274 16.435L62.2754 15.637L62.2544 17.422L59.7344 17.926C59.2584 18.024 58.8944 18.157 58.6424 18.325C58.4044 18.479 58.2854 18.738 58.2854 19.102C58.2854 19.452 58.4114 19.718 58.6634 19.9C58.9294 20.082 59.2444 20.173 59.6084 20.173C59.9024 20.173 60.1894 20.138 60.4694 20.068C60.7494 19.998 61.0014 19.886 61.2254 19.732C61.4494 19.578 61.6244 19.368 61.7504 19.102C61.8764 18.836 61.9394 18.514 61.9394 18.136V15.301ZM74.187 22.21C73.543 22.21 72.955 22.077 72.423 21.811C71.905 21.531 71.471 21.153 71.121 20.677C70.785 20.187 70.554 19.641 70.428 19.039L70.722 18.661L70.554 22H68.013V6.901H70.89V14.461L70.617 14.02C70.841 13.236 71.268 12.585 71.898 12.067C72.528 11.549 73.319 11.29 74.271 11.29C75.097 11.29 75.846 11.507 76.518 11.941C77.19 12.375 77.715 12.998 78.093 13.81C78.485 14.622 78.681 15.609 78.681 16.771C78.681 17.905 78.485 18.878 78.093 19.69C77.715 20.502 77.183 21.125 76.497 21.559C75.825 21.993 75.055 22.21 74.187 22.21ZM73.326 20.005C74.096 20.005 74.698 19.732 75.132 19.186C75.58 18.626 75.804 17.814 75.804 16.75C75.804 15.686 75.587 14.881 75.153 14.335C74.719 13.775 74.117 13.495 73.347 13.495C72.843 13.495 72.409 13.628 72.045 13.894C71.681 14.16 71.394 14.538 71.184 15.028C70.988 15.518 70.89 16.099 70.89 16.771C70.89 17.457 70.988 18.045 71.184 18.535C71.394 19.011 71.681 19.375 72.045 19.627C72.423 19.879 72.85 20.005 73.326 20.005ZM82.628 9.988C82.026 9.988 81.578 9.862 81.284 9.61C80.99 9.344 80.843 8.959 80.843 8.455C80.843 7.937 80.99 7.552 81.284 7.3C81.578 7.034 82.026 6.901 82.628 6.901C83.23 6.901 83.678 7.034 83.972 7.3C84.266 7.552 84.413 7.937 84.413 8.455C84.413 8.959 84.266 9.344 83.972 9.61C83.678 9.862 83.23 9.988 82.628 9.988ZM84.056 11.5V22H81.179V11.5H84.056ZM90.8228 8.287V18.577C90.8228 19.081 90.9488 19.452 91.2008 19.69C91.4668 19.914 91.8238 20.026 92.2718 20.026C92.6218 20.026 92.9298 19.977 93.1958 19.879C93.4618 19.767 93.6998 19.62 93.9098 19.438L94.3718 21.349C94.0358 21.615 93.6158 21.825 93.1118 21.979C92.6078 22.133 92.0758 22.21 91.5158 22.21C90.8158 22.21 90.1928 22.105 89.6468 21.895C89.1148 21.685 88.6948 21.349 88.3868 20.887C88.0928 20.425 87.9458 19.809 87.9458 19.039V9.085L90.8228 8.287ZM94.1828 11.5V13.642H86.0138V11.5H94.1828ZM100.329 22.21C99.2652 22.21 98.2922 22.021 97.4102 21.643C96.5422 21.265 95.8352 20.733 95.2892 20.047L96.9482 18.367C97.2842 18.871 97.7322 19.284 98.2922 19.606C98.8522 19.928 99.5172 20.089 100.287 20.089C100.833 20.089 101.267 20.012 101.589 19.858C101.925 19.69 102.093 19.431 102.093 19.081C102.093 18.857 102.016 18.668 101.862 18.514C101.708 18.346 101.4 18.213 100.938 18.115L99.0902 17.737C97.8722 17.485 97.0042 17.107 96.4862 16.603C95.9822 16.085 95.7302 15.42 95.7302 14.608C95.7302 14.034 95.8982 13.495 96.2342 12.991C96.5842 12.487 97.1022 12.081 97.7882 11.773C98.4742 11.451 99.3282 11.29 100.35 11.29C101.4 11.29 102.31 11.458 103.08 11.794C103.864 12.116 104.48 12.599 104.928 13.243L103.206 14.923C102.898 14.433 102.492 14.062 101.988 13.81C101.498 13.544 100.98 13.411 100.434 13.411C100.042 13.411 99.7062 13.453 99.4262 13.537C99.1462 13.621 98.9362 13.74 98.7962 13.894C98.6562 14.034 98.5862 14.216 98.5862 14.44C98.5862 14.664 98.6842 14.86 98.8802 15.028C99.0762 15.182 99.4332 15.315 99.9512 15.427L102.093 15.868C103.129 16.078 103.871 16.435 104.319 16.939C104.767 17.429 104.991 18.024 104.991 18.724C104.991 19.396 104.809 19.998 104.445 20.53C104.095 21.048 103.57 21.461 102.87 21.769C102.184 22.063 101.337 22.21 100.329 22.21Z" fill="#6F78CE"/>
<path d="M118.541 8.14V10.471H113.9V22H111.002V10.471H106.34V8.14H118.541ZM119.241 22V11.5H121.74L121.929 13.558C122.209 12.83 122.615 12.27 123.147 11.878C123.693 11.486 124.372 11.29 125.184 11.29C125.422 11.29 125.639 11.311 125.835 11.353C126.031 11.395 126.192 11.451 126.318 11.521L125.982 13.936C125.842 13.88 125.667 13.838 125.457 13.81C125.261 13.782 125.002 13.768 124.68 13.768C124.26 13.768 123.854 13.873 123.462 14.083C123.07 14.279 122.748 14.587 122.496 15.007C122.244 15.413 122.118 15.931 122.118 16.561V22H119.241ZM133.901 15.301C133.901 14.699 133.726 14.23 133.376 13.894C133.04 13.558 132.592 13.39 132.032 13.39C131.514 13.39 131.059 13.523 130.667 13.789C130.275 14.055 129.988 14.496 129.806 15.112L127.349 14.356C127.587 13.432 128.105 12.69 128.903 12.13C129.715 11.57 130.8 11.29 132.158 11.29C133.082 11.29 133.887 11.437 134.573 11.731C135.259 12.011 135.791 12.438 136.169 13.012C136.561 13.586 136.757 14.307 136.757 15.175V19.438C136.757 19.97 137.009 20.236 137.513 20.236C137.751 20.236 137.975 20.201 138.185 20.131L138.017 21.916C137.653 22.098 137.198 22.189 136.652 22.189C136.162 22.189 135.721 22.105 135.329 21.937C134.937 21.769 134.629 21.517 134.405 21.181C134.181 20.831 134.069 20.397 134.069 19.879V19.795L134.573 19.711C134.489 20.243 134.258 20.698 133.88 21.076C133.502 21.44 133.04 21.72 132.494 21.916C131.962 22.112 131.409 22.21 130.835 22.21C130.121 22.21 129.505 22.105 128.987 21.895C128.469 21.671 128.07 21.349 127.79 20.929C127.51 20.509 127.37 19.991 127.37 19.375C127.37 18.591 127.622 17.954 128.126 17.464C128.63 16.96 129.351 16.617 130.289 16.435L134.237 15.637L134.216 17.422L131.696 17.926C131.22 18.024 130.856 18.157 130.604 18.325C130.366 18.479 130.247 18.738 130.247 19.102C130.247 19.452 130.373 19.718 130.625 19.9C130.891 20.082 131.206 20.173 131.57 20.173C131.864 20.173 132.151 20.138 132.431 20.068C132.711 19.998 132.963 19.886 133.187 19.732C133.411 19.578 133.586 19.368 133.712 19.102C133.838 18.836 133.901 18.514 133.901 18.136V15.301ZM144.701 11.29C145.639 11.29 146.43 11.43 147.074 11.71C147.732 11.976 148.257 12.347 148.649 12.823C149.055 13.285 149.342 13.803 149.51 14.377L146.822 15.343C146.682 14.713 146.444 14.237 146.108 13.915C145.772 13.593 145.317 13.432 144.743 13.432C144.211 13.432 143.756 13.558 143.378 13.81C143 14.048 142.713 14.419 142.517 14.923C142.321 15.413 142.223 16.029 142.223 16.771C142.223 17.513 142.321 18.129 142.517 18.619C142.727 19.109 143.021 19.473 143.399 19.711C143.791 19.949 144.246 20.068 144.764 20.068C145.184 20.068 145.541 19.998 145.835 19.858C146.129 19.704 146.367 19.487 146.549 19.207C146.745 18.927 146.878 18.591 146.948 18.199L149.552 19.039C149.398 19.669 149.111 20.222 148.691 20.698C148.271 21.174 147.732 21.545 147.074 21.811C146.416 22.077 145.653 22.21 144.785 22.21C143.707 22.21 142.755 21.993 141.929 21.559C141.103 21.125 140.466 20.502 140.018 19.69C139.57 18.878 139.346 17.898 139.346 16.75C139.346 15.602 139.57 14.622 140.018 13.81C140.466 12.998 141.096 12.375 141.908 11.941C142.72 11.507 143.651 11.29 144.701 11.29ZM162.476 11.5L157.625 16.561L157.058 16.834L153.908 20.215L153.866 17.149L159.2 11.5H162.476ZM154.664 6.901V22H151.787V6.901H154.664ZM158.024 14.839L162.728 22H159.473L156.05 16.519L158.024 14.839ZM168.8 22.21C167.694 22.21 166.728 21.993 165.902 21.559C165.09 21.125 164.46 20.502 164.012 19.69C163.564 18.878 163.34 17.898 163.34 16.75C163.34 15.602 163.564 14.622 164.012 13.81C164.46 12.998 165.083 12.375 165.881 11.941C166.693 11.507 167.617 11.29 168.653 11.29C169.717 11.29 170.62 11.507 171.362 11.941C172.104 12.361 172.671 12.942 173.063 13.684C173.455 14.412 173.651 15.245 173.651 16.183C173.651 16.463 173.644 16.729 173.63 16.981C173.616 17.233 173.595 17.457 173.567 17.653H165.188V15.658H172.307L170.921 16.162C170.921 15.28 170.718 14.601 170.312 14.125C169.92 13.649 169.36 13.411 168.632 13.411C168.1 13.411 167.638 13.537 167.246 13.789C166.868 14.041 166.581 14.419 166.385 14.923C166.189 15.413 166.091 16.036 166.091 16.792C166.091 17.534 166.196 18.15 166.406 18.64C166.63 19.116 166.938 19.473 167.33 19.711C167.736 19.949 168.219 20.068 168.779 20.068C169.395 20.068 169.892 19.949 170.27 19.711C170.648 19.473 170.942 19.144 171.152 18.724L173.441 19.606C173.217 20.152 172.874 20.621 172.412 21.013C171.964 21.405 171.425 21.706 170.795 21.916C170.179 22.112 169.514 22.21 168.8 22.21ZM176.089 22V11.5H178.588L178.777 13.558C179.057 12.83 179.463 12.27 179.995 11.878C180.541 11.486 181.22 11.29 182.032 11.29C182.27 11.29 182.487 11.311 182.683 11.353C182.879 11.395 183.04 11.451 183.166 11.521L182.83 13.936C182.69 13.88 182.515 13.838 182.305 13.81C182.109 13.782 181.85 13.768 181.528 13.768C181.108 13.768 180.702 13.873 180.31 14.083C179.918 14.279 179.596 14.587 179.344 15.007C179.092 15.413 178.966 15.931 178.966 16.561V22H176.089Z" fill="white"/>
<circle cx="2.78846" cy="8.64417" r="2.78846" fill="#6F78CE"/>
<circle cx="14.5" cy="8.64417" r="2.78846" fill="#D9D9D9"/>
<circle cx="14.5" cy="2.78846" r="2.78846" fill="#D9D9D9"/>
<circle cx="20.3558" cy="2.78846" r="2.78846" fill="#D9D9D9"/>
<circle cx="26.2116" cy="2.78846" r="2.78846" fill="#D9D9D9"/>
<circle cx="26.2116" cy="8.64417" r="2.78846" fill="#D9D9D9"/>
<circle cx="26.2116" cy="14.5001" r="2.78846" fill="#D9D9D9"/>
<circle cx="26.2116" cy="20.3558" r="2.78846" fill="#D9D9D9"/>
<circle cx="14.2211" cy="14.5001" r="2.78846" fill="#D9D9D9"/>
<circle cx="26.2116" cy="25.9327" r="2.78846" fill="#D9D9D9"/>
<circle cx="14.5" cy="20.3558" r="2.78846" fill="#6F78CE"/>
<circle cx="2.78846" cy="14.5001" r="2.78846" fill="#6F78CE"/>
<circle cx="2.78846" cy="20.3558" r="2.78846" fill="#6F78CE"/>
<circle cx="2.78846" cy="26.2116" r="2.78846" fill="#6F78CE"/>
<circle cx="14.5" cy="26.2116" r="2.78846" fill="#6F78CE"/>
<circle cx="8.6443" cy="25.9327" r="2.78846" fill="#6F78CE"/>
</svg>
