<svg viewBox="0 0 30 30" fill="none" xmlns="http://www.w3.org/2000/svg">
<g clip-path="url(#clip0_35_59)">
<path d="M28.1925 1.15379C27.6282 0.683145 26.9666 0.343422 26.2553 0.159057C25.544 -0.0253091 24.8006 -0.049735 24.0788 0.087536L12.5988 2.24004C11.1659 2.50856 9.87202 3.2695 8.94093 4.39119C8.00984 5.51288 7.50013 6.92476 7.5 8.38254V20.695C6.74332 20.2451 5.88032 20.0052 5 20C4.0111 20 3.0444 20.2933 2.22215 20.8427C1.39991 21.3921 0.759043 22.173 0.380605 23.0866C0.00216641 24.0003 -0.0968503 25.0056 0.0960759 25.9755C0.289002 26.9454 0.765206 27.8363 1.46447 28.5356C2.16373 29.2348 3.05465 29.711 4.02455 29.904C4.99446 30.0969 5.99979 29.9979 6.91342 29.6194C7.82705 29.241 8.60794 28.6001 9.15735 27.7779C9.70676 26.9556 10 25.9889 10 25V13.595C9.99996 13.0118 10.2039 12.4468 10.5764 11.9981C10.949 11.5493 11.4667 11.2449 12.04 11.1375L26.0188 8.51254C26.2001 8.4784 26.3867 8.48482 26.5653 8.53136C26.7438 8.57789 26.9099 8.66337 27.0515 8.78167C27.1931 8.89997 27.3067 9.04815 27.3843 9.21558C27.4618 9.38301 27.5013 9.56553 27.5 9.75004V16.95C26.7438 16.4984 25.8808 16.2567 25 16.25C24.0111 16.25 23.0444 16.5433 22.2222 17.0927C21.3999 17.6421 20.759 18.423 20.3806 19.3366C20.0022 20.2503 19.9032 21.2556 20.0961 22.2255C20.289 23.1954 20.7652 24.0863 21.4645 24.7856C22.1637 25.4848 23.0546 25.961 24.0246 26.154C24.9945 26.3469 25.9998 26.2479 26.9134 25.8694C27.8271 25.491 28.6079 24.8501 29.1574 24.0279C29.7068 23.2056 30 22.2389 30 21.25V5.00004C30.0009 4.26533 29.8393 3.53953 29.5268 2.87459C29.2143 2.20965 28.7587 1.62203 28.1925 1.15379ZM5 27.5C4.50555 27.5 4.0222 27.3534 3.61108 27.0787C3.19995 26.804 2.87952 26.4136 2.6903 25.9567C2.50108 25.4999 2.45158 24.9973 2.54804 24.5123C2.6445 24.0274 2.8826 23.5819 3.23224 23.2323C3.58187 22.8826 4.02732 22.6445 4.51228 22.5481C4.99723 22.4516 5.4999 22.5011 5.95671 22.6903C6.41353 22.8796 6.80397 23.2 7.07868 23.6111C7.35338 24.0222 7.5 24.5056 7.5 25C7.5 25.6631 7.23661 26.299 6.76777 26.7678C6.29893 27.2366 5.66304 27.5 5 27.5ZM25.5588 6.06004L11.5788 8.68004C11.0229 8.78595 10.4891 8.98545 10 9.27004V8.38254C9.99988 7.50781 10.3056 6.66056 10.8641 5.9874C11.4227 5.31424 12.199 4.85753 13.0588 4.69629L24.54 2.54379C24.9009 2.47622 25.2723 2.48899 25.6277 2.58119C25.9831 2.67339 26.3139 2.84274 26.5965 3.07722C26.879 3.3117 27.1065 3.60555 27.2626 3.93788C27.4188 4.2702 27.4998 4.63285 27.5 5.00004V6.23004C26.8798 6.00063 26.2094 5.94192 25.5588 6.06004ZM25 23.75C24.5056 23.75 24.0222 23.6034 23.6111 23.3287C23.2 23.054 22.8795 22.6636 22.6903 22.2067C22.5011 21.7499 22.4516 21.2473 22.548 20.7623C22.6445 20.2774 22.8826 19.8319 23.2322 19.4823C23.5819 19.1326 24.0273 18.8945 24.5123 18.7981C24.9972 18.7016 25.4999 18.7511 25.9567 18.9403C26.4135 19.1296 26.804 19.45 27.0787 19.8611C27.3534 20.2722 27.5 20.7556 27.5 21.25C27.5 21.9131 27.2366 22.549 26.7678 23.0178C26.2989 23.4866 25.663 23.75 25 23.75Z" fill="#57B59B"/>
</g>
<defs>
<clipPath id="clip0_35_59">
<rect width="30" height="30" fill="white"/>
</clipPath>
</defs>
</svg>
