<svg viewBox="0 0 31 30" fill="none" xmlns="http://www.w3.org/2000/svg">
<path d="M29.8434 10.9445C29.5876 10.1304 29.0767 9.42033 28.3862 8.91914C27.6956 8.41795 26.8621 8.15229 26.0089 8.16146H20.5467L18.8876 2.99052C18.6267 2.17657 18.1141 1.46652 17.4236 0.962738C16.7331 0.458961 15.9004 0.1875 15.0457 0.1875C14.1909 0.1875 13.3583 0.458961 12.6678 0.962738C11.9773 1.46652 11.4646 2.17657 11.2037 2.99052L9.54468 8.16146H4.08245C3.23197 8.16267 2.40363 8.43261 1.71574 8.93273C1.02785 9.43285 0.5156 10.1376 0.252153 10.9462C-0.0112935 11.7548 -0.0124595 12.6261 0.248822 13.4354C0.510103 14.2447 1.02047 14.9508 1.70702 15.4528L6.15282 18.7034L4.46251 23.9381C4.18935 24.75 4.18589 25.6284 4.45265 26.4424C4.7194 27.2564 5.24209 27.9624 5.94278 28.4551C6.63147 28.9637 7.46605 29.2361 8.32216 29.2319C9.17826 29.2276 10.0101 28.9468 10.6936 28.4314L15.0457 25.2283L19.399 28.4276C20.0864 28.9333 20.9165 29.2079 21.7699 29.2121C22.6232 29.2163 23.456 28.9497 24.1483 28.4508C24.8406 27.9518 25.3569 27.2462 25.623 26.4354C25.889 25.6245 25.8911 24.7502 25.6288 23.9381L23.9385 18.7034L28.3893 15.4528C29.0837 14.9571 29.6001 14.2511 29.862 13.4391C30.1238 12.6271 30.1173 11.7524 29.8434 10.9445ZM26.9141 13.4337L21.7331 17.2206C21.5203 17.3758 21.362 17.5943 21.2807 17.8449C21.1995 18.0954 21.1994 18.3653 21.2806 18.6159L23.2497 24.7045C23.3493 25.0133 23.3485 25.3457 23.2472 25.654C23.146 25.9623 22.9496 26.2306 22.6864 26.4202C22.4231 26.6099 22.1064 26.7112 21.7819 26.7095C21.4574 26.7079 21.1418 26.6034 20.8805 26.411L15.7858 22.6603C15.5712 22.5027 15.3119 22.4177 15.0457 22.4177C14.7794 22.4177 14.5201 22.5027 14.3055 22.6603L9.21087 26.411C8.94968 26.6059 8.63319 26.7126 8.30729 26.7156C7.98139 26.7185 7.66302 26.6176 7.39833 26.4275C7.13364 26.2373 6.9364 25.9678 6.83519 25.658C6.73398 25.3482 6.73407 25.0142 6.83544 24.7045L8.8108 18.6159C8.89196 18.3653 8.8919 18.0954 8.81063 17.8449C8.72936 17.5943 8.57102 17.3758 8.35822 17.2206L3.17728 13.4337C2.91636 13.2426 2.72249 12.974 2.62336 12.6662C2.52422 12.3584 2.5249 12.0271 2.62529 11.7197C2.72567 11.4123 2.92064 11.1445 3.18233 10.9545C3.44403 10.7646 3.75907 10.6621 4.08245 10.6619H10.4586C10.7233 10.6619 10.9812 10.5779 11.195 10.422C11.4089 10.266 11.5678 10.0463 11.6488 9.79426L13.5867 3.75441C13.6861 3.44534 13.8811 3.1758 14.1435 2.98458C14.4059 2.79337 14.7222 2.69035 15.0469 2.69035C15.3716 2.69035 15.6879 2.79337 15.9503 2.98458C16.2128 3.1758 16.4077 3.44534 16.5072 3.75441L18.445 9.79426C18.526 10.0463 18.6849 10.266 18.8988 10.422C19.1127 10.5779 19.3706 10.6619 19.6353 10.6619H26.0114C26.3348 10.6621 26.6498 10.7646 26.9115 10.9545C27.1732 11.1445 27.3682 11.4123 27.4686 11.7197C27.569 12.0271 27.5696 12.3584 27.4705 12.6662C27.3714 12.974 27.1775 13.2426 26.9166 13.4337H26.9141Z" fill="#FFB520"/>
</svg>
