<svg viewBox="0 0 30 30" fill="none" xmlns="http://www.w3.org/2000/svg">
<g clip-path="url(#clip0_35_79)">
<path d="M21.3938 10.0624C21.0354 10.1576 20.7133 10.3569 20.4682 10.6352C20.2231 10.9135 20.066 11.2582 20.0168 11.6257C19.9676 11.9932 20.0285 12.3671 20.1918 12.7001C20.355 13.033 20.6133 13.31 20.9341 13.4962C21.2548 13.6823 21.6235 13.7692 21.9936 13.7458C22.3636 13.7224 22.7185 13.5898 23.0132 13.3647C23.3079 13.1397 23.5293 12.8323 23.6493 12.4815C23.7693 12.1306 23.7826 11.752 23.6875 11.3936C23.6244 11.1556 23.5149 10.9323 23.3655 10.7366C23.216 10.5408 23.0294 10.3765 22.8164 10.2528C22.6034 10.1292 22.3682 10.0488 22.1241 10.0161C21.8799 9.98341 21.6318 9.99914 21.3938 10.0624Z" fill="#3FA1BC"/>
<path d="M15.1438 6.31238C14.7854 6.4076 14.4633 6.60694 14.2182 6.88521C13.9731 7.16348 13.816 7.50817 13.7668 7.8757C13.7176 8.24324 13.7785 8.61711 13.9418 8.95005C14.105 9.28299 14.3633 9.56004 14.6841 9.74618C15.0048 9.93231 15.3735 10.0192 15.7436 9.99578C16.1136 9.97238 16.4685 9.83977 16.7632 9.61473C17.0579 9.38968 17.2793 9.0823 17.3993 8.73145C17.5193 8.38061 17.5326 8.00204 17.4375 7.64363C17.3744 7.40559 17.2649 7.18232 17.1155 6.98658C16.966 6.79085 16.7794 6.62647 16.5664 6.50285C16.3534 6.37922 16.1182 6.29877 15.8741 6.26609C15.63 6.23341 15.3818 6.24914 15.1438 6.31238Z" fill="#3FA1BC"/>
<path d="M8.89378 10.0624C8.5354 10.1576 8.2133 10.3569 7.96821 10.6352C7.72311 10.9135 7.56603 11.2582 7.51683 11.6257C7.46762 11.9932 7.5285 12.3671 7.69176 12.7001C7.85503 13.033 8.11335 13.31 8.43406 13.4962C8.75477 13.6823 9.12348 13.7692 9.49355 13.7458C9.86363 13.7224 10.2185 13.5898 10.5132 13.3647C10.8079 13.1397 11.0293 12.8323 11.1493 12.4815C11.2693 12.1306 11.2826 11.752 11.1875 11.3936C11.1244 11.1556 11.0149 10.9323 10.8655 10.7366C10.716 10.5408 10.5294 10.3765 10.3164 10.2528C10.1034 10.1292 9.86815 10.0488 9.62405 10.0161C9.37995 9.98341 9.1318 9.99914 8.89378 10.0624Z" fill="#3FA1BC"/>
<path d="M8.89378 17.5624C8.5354 17.6576 8.2133 17.8569 7.96821 18.1352C7.72311 18.4135 7.56603 18.7582 7.51683 19.1257C7.46762 19.4932 7.5285 19.8671 7.69176 20.2001C7.85503 20.533 8.11335 20.81 8.43406 20.9962C8.75477 21.1823 9.12348 21.2692 9.49355 21.2458C9.86363 21.2224 10.2185 21.0898 10.5132 20.8647C10.8079 20.6397 11.0293 20.3323 11.1493 19.9815C11.2693 19.6306 11.2826 19.252 11.1875 18.8936C11.1244 18.6556 11.0149 18.4323 10.8655 18.2366C10.716 18.0408 10.5294 17.8765 10.3164 17.7528C10.1034 17.6292 9.86815 17.5488 9.62405 17.5161C9.37995 17.4834 9.1318 17.4991 8.89378 17.5624Z" fill="#3FA1BC"/>
<path d="M15.625 0.0085717C13.6125 -0.0614055 11.6065 0.274559 9.7266 0.996437C7.8467 1.71831 6.1314 2.81132 4.68297 4.2103C3.23453 5.60928 2.08261 7.28558 1.29588 9.13928C0.509148 10.993 0.103718 12.9861 0.10376 14.9998C0.108391 18.9766 1.69023 22.7893 4.50227 25.6013C7.31432 28.4134 11.1269 29.9952 15.1038 29.9998C15.5263 29.9998 15.9413 29.9723 16.3538 29.9373C16.6668 29.9109 16.9583 29.7677 17.1705 29.5361C17.3827 29.3044 17.4999 29.0014 17.4988 28.6873L17.4588 24.2023C17.4486 23.316 17.7029 22.4468 18.1891 21.7057C18.6752 20.9646 19.3712 20.3852 20.1882 20.0415C21.0052 19.6978 21.9061 19.6054 22.7759 19.7761C23.6456 19.9468 24.4448 20.3728 25.0713 20.9998L25.1963 21.1248C25.48 21.411 25.8316 21.6208 26.2182 21.7347C26.6048 21.8485 27.0139 21.8628 27.4075 21.7761C27.7947 21.6948 28.1553 21.5175 28.4561 21.2604C28.7569 21.0033 28.9882 20.6747 29.1288 20.3048C29.8189 18.4927 30.1488 16.5633 30.1 14.6248C29.9593 10.8173 28.3933 7.20167 25.7123 4.49449C23.0312 1.7873 19.4309 0.186212 15.625 0.0085717ZM26.8525 19.2586L26.835 19.2411C25.8579 18.2656 24.6128 17.6029 23.258 17.3371C21.9032 17.0714 20.4999 17.2146 19.2267 17.7487C17.9536 18.2828 16.8681 19.1835 16.1083 20.3362C15.3485 21.489 14.9488 22.8417 14.96 24.2223L14.99 27.4998C11.6748 27.4849 8.50131 26.1536 6.16765 23.7989C3.83399 21.4441 2.53134 18.2588 2.54626 14.9436C2.56118 11.6284 3.89245 8.45487 6.2472 6.12121C8.60195 3.78756 11.7873 2.4849 15.1025 2.49982C15.2488 2.49982 15.3963 2.49982 15.5438 2.50732C18.7142 2.65624 21.7131 3.99075 23.9461 6.2464C26.179 8.50206 27.4832 11.5142 27.6 14.6861C27.6413 16.2406 27.3889 17.7889 26.8563 19.2498L26.8525 19.2586Z" fill="#3EA0BB"/>
</g>
<defs>
<clipPath id="clip0_35_79">
<rect width="30" height="30" fill="white"/>
</clipPath>
</defs>
</svg>
