<svg viewBox="0 0 30 28" fill="none" xmlns="http://www.w3.org/2000/svg">
<path d="M23.75 5H20V3.75C20 2.75544 19.6049 1.80161 18.9017 1.09835C18.1984 0.395088 17.2446 0 16.25 0H13.75C12.7554 0 11.8016 0.395088 11.0983 1.09835C10.3951 1.80161 10 2.75544 10 3.75V5H6.25C4.59301 5.00198 3.00445 5.6611 1.83277 6.83277C0.661102 8.00445 0.00198482 9.59301 0 11.25L0 21.25C0.00198482 22.907 0.661102 24.4956 1.83277 25.6672C3.00445 26.8389 4.59301 27.498 6.25 27.5H23.75C25.407 27.498 26.9956 26.8389 28.1672 25.6672C29.3389 24.4956 29.998 22.907 30 21.25V11.25C29.998 9.59301 29.3389 8.00445 28.1672 6.83277C26.9956 5.6611 25.407 5.00198 23.75 5ZM12.5 3.75C12.5 3.41848 12.6317 3.10054 12.8661 2.86612C13.1005 2.6317 13.4185 2.5 13.75 2.5H16.25C16.5815 2.5 16.8995 2.6317 17.1339 2.86612C17.3683 3.10054 17.5 3.41848 17.5 3.75V5H12.5V3.75ZM27.5 21.25C27.5 22.2446 27.1049 23.1984 26.4017 23.9017C25.6984 24.6049 24.7446 25 23.75 25H6.25C5.25544 25 4.30161 24.6049 3.59835 23.9017C2.89509 23.1984 2.5 22.2446 2.5 21.25V11.25C2.5 10.2554 2.89509 9.30161 3.59835 8.59835C4.30161 7.89509 5.25544 7.5 6.25 7.5H23.75C24.7446 7.5 25.6984 7.89509 26.4017 8.59835C27.1049 9.30161 27.5 10.2554 27.5 11.25V21.25ZM20 16.25C20 16.5815 19.8683 16.8995 19.6339 17.1339C19.3995 17.3683 19.0815 17.5 18.75 17.5H16.25V20C16.25 20.3315 16.1183 20.6495 15.8839 20.8839C15.6495 21.1183 15.3315 21.25 15 21.25C14.6685 21.25 14.3505 21.1183 14.1161 20.8839C13.8817 20.6495 13.75 20.3315 13.75 20V17.5H11.25C10.9185 17.5 10.6005 17.3683 10.3661 17.1339C10.1317 16.8995 10 16.5815 10 16.25C10 15.9185 10.1317 15.6005 10.3661 15.3661C10.6005 15.1317 10.9185 15 11.25 15H13.75V12.5C13.75 12.1685 13.8817 11.8505 14.1161 11.6161C14.3505 11.3817 14.6685 11.25 15 11.25C15.3315 11.25 15.6495 11.3817 15.8839 11.6161C16.1183 11.8505 16.25 12.1685 16.25 12.5V15H18.75C19.0815 15 19.3995 15.1317 19.6339 15.3661C19.8683 15.6005 20 15.9185 20 16.25Z" fill="#3D9FBA"/>
</svg>
