<svg viewBox="0 0 30 30" fill="none" xmlns="http://www.w3.org/2000/svg">
<path d="M28.9012 11.3095L19.42 1.82703C18.2466 0.657018 16.6571 0 15 0C13.3429 0 11.7534 0.657018 10.58 1.82703L1.09876 11.3095C0.749296 11.6568 0.472227 12.0699 0.283618 12.525C0.0950089 12.9801 -0.001388 13.4681 1.50993e-05 13.9608V26.232C1.50993e-05 27.2266 0.395103 28.1804 1.09836 28.8837C1.80162 29.5869 2.75545 29.982 3.75001 29.982H26.25C27.2445 29.982 28.1984 29.5869 28.9016 28.8837C29.6049 28.1804 30 27.2266 30 26.232V13.9608C30.0014 13.4681 29.905 12.9801 29.7164 12.525C29.5278 12.0699 29.2507 11.6568 28.9012 11.3095ZM18.75 27.482H11.25V22.5645C11.25 21.5699 11.6451 20.6161 12.3484 19.9129C13.0516 19.2096 14.0054 18.8145 15 18.8145C15.9946 18.8145 16.9484 19.2096 17.6516 19.9129C18.3549 20.6161 18.75 21.5699 18.75 22.5645V27.482ZM27.5 26.232C27.5 26.5635 27.3683 26.8815 27.1339 27.1159C26.8995 27.3503 26.5815 27.482 26.25 27.482H21.25V22.5645C21.25 20.9069 20.5915 19.3172 19.4194 18.1451C18.2473 16.973 16.6576 16.3145 15 16.3145C13.3424 16.3145 11.7527 16.973 10.5806 18.1451C9.40849 19.3172 8.75001 20.9069 8.75001 22.5645V27.482H3.75001C3.41849 27.482 3.10055 27.3503 2.86613 27.1159C2.63171 26.8815 2.50001 26.5635 2.50001 26.232V13.9608C2.50117 13.6295 2.63275 13.312 2.86626 13.077L12.3475 3.59828C13.0521 2.89694 14.0058 2.50321 15 2.50321C15.9942 2.50321 16.9479 2.89694 17.6525 3.59828L27.1337 13.0808C27.3663 13.3148 27.4978 13.6308 27.5 13.9608V26.232Z" fill="#CF4569"/>
</svg>
