<svg viewBox="0 0 30 30" fill="none" xmlns="http://www.w3.org/2000/svg">
<g clip-path="url(#clip0_35_51)">
<path d="M23.75 5H22.375C22.0849 3.58927 21.3173 2.32168 20.2016 1.4109C19.0859 0.500113 17.6903 0.00181816 16.25 0L13.75 0C12.3097 0.00181816 10.9141 0.500113 9.79844 1.4109C8.68273 2.32168 7.91512 3.58927 7.625 5H6.25C4.59301 5.00198 3.00445 5.6611 1.83277 6.83277C0.661102 8.00445 0.00198482 9.59301 0 11.25L0 23.75C0.00198482 25.407 0.661102 26.9956 1.83277 28.1672C3.00445 29.3389 4.59301 29.998 6.25 30H23.75C25.407 29.998 26.9956 29.3389 28.1672 28.1672C29.3389 26.9956 29.998 25.407 30 23.75V11.25C29.998 9.59301 29.3389 8.00445 28.1672 6.83277C26.9956 5.6611 25.407 5.00198 23.75 5ZM13.75 2.5H16.25C17.0228 2.5032 17.7758 2.7451 18.4059 3.19261C19.036 3.64011 19.5124 4.27136 19.77 5H10.23C10.4876 4.27136 10.964 3.64011 11.5941 3.19261C12.2242 2.7451 12.9772 2.5032 13.75 2.5ZM6.25 7.5H23.75C24.7446 7.5 25.6984 7.89509 26.4017 8.59835C27.1049 9.30161 27.5 10.2554 27.5 11.25V15H2.5V11.25C2.5 10.2554 2.89509 9.30161 3.59835 8.59835C4.30161 7.89509 5.25544 7.5 6.25 7.5ZM23.75 27.5H6.25C5.25544 27.5 4.30161 27.1049 3.59835 26.4017C2.89509 25.6984 2.5 24.7446 2.5 23.75V17.5H13.75V18.75C13.75 19.0815 13.8817 19.3995 14.1161 19.6339C14.3505 19.8683 14.6685 20 15 20C15.3315 20 15.6495 19.8683 15.8839 19.6339C16.1183 19.3995 16.25 19.0815 16.25 18.75V17.5H27.5V23.75C27.5 24.7446 27.1049 25.6984 26.4017 26.4017C25.6984 27.1049 24.7446 27.5 23.75 27.5Z" fill="#4F6685"/>
</g>
<defs>
<clipPath id="clip0_35_51">
<rect width="30" height="30" fill="white"/>
</clipPath>
</defs>
</svg>
