<svg viewBox="0 0 20 19" xmlns="http://www.w3.org/2000/svg">
<path fill-rule="evenodd" clip-rule="evenodd" d="M1.00003 0.939354L3.65088 3.59021C5.13476 2.29037 7.20182 1.25 10 1.25C13.7908 1.25 16.2398 3.15944 17.7147 5.03663C18.4486 5.97062 18.9466 6.90107 19.2615 7.59712C19.4193 7.94607 19.5323 8.2387 19.6067 8.44696C19.6439 8.55117 19.6715 8.63448 19.6903 8.69342C19.6998 8.7229 19.707 8.7463 19.7121 8.76319C19.7146 8.77164 19.7166 8.77846 19.7181 8.78361L19.7188 8.78597L19.72 8.79006L19.7207 8.79233L19.7209 8.79323C19.721 8.7936 19.7211 8.79396 19 9C19.7211 9.20604 19.721 9.20639 19.7209 9.20677L19.7207 9.20766L19.72 9.20993C19.7195 9.21166 19.7189 9.21381 19.7181 9.21639C19.7166 9.22153 19.7146 9.22835 19.7121 9.2368C19.707 9.2537 19.6998 9.2771 19.6903 9.30658C19.6715 9.36551 19.6439 9.44882 19.6067 9.55303C19.5323 9.7613 19.4193 10.0539 19.2615 10.4029C18.9466 11.0989 18.4486 12.0294 17.7147 12.9634C17.0889 13.7599 16.2876 14.5623 15.2828 15.2221L18.0607 18L17.0607 19L3.05176e-05 1.93935L1.00003 0.939354ZM16.5353 12.0366C15.9384 12.7963 15.1714 13.5489 14.1953 14.1346L11.8367 11.776L12.3368 11.2588C12.9014 10.6748 13.25 9.87732 13.25 9C13.25 7.20507 11.795 5.75 10 5.75C9.1227 5.75 8.32526 6.09862 7.74122 6.66327L7.224 7.16332L4.71374 4.65306C5.96738 3.58024 7.68142 2.75 10 2.75C13.2092 2.75 15.2602 4.34055 16.5353 5.96336C17.1764 6.77938 17.6159 7.59893 17.8948 8.21537C18.0338 8.52267 18.1317 8.77692 18.1941 8.95147C18.2001 8.96841 18.2058 8.9846 18.2112 9C18.2058 9.0154 18.2001 9.03158 18.1941 9.04853C18.1317 9.22307 18.0338 9.47732 17.8948 9.78462C17.6159 10.4011 17.1764 11.2206 16.5353 12.0366ZM11.2584 10.2162L10.7759 10.7152L8.28481 8.22413L8.78383 7.74167C9.09944 7.43655 9.52717 7.25 10 7.25C10.9665 7.25 11.75 8.0335 11.75 9C11.75 9.47285 11.5635 9.90059 11.2584 10.2162Z"/>
<path d="M1.73571 5.79636C1.29307 6.46135 0.967428 7.09116 0.738541 7.59712C0.580683 7.94607 0.467681 8.2387 0.3933 8.44696C0.356083 8.55117 0.328456 8.63448 0.309652 8.69342C0.300248 8.7229 0.293043 8.7463 0.287944 8.76319C0.285394 8.77164 0.283369 8.77846 0.281859 8.78361L0.281053 8.78636L0.279976 8.79006L0.279321 8.79233L0.279064 8.79323C0.278955 8.7936 0.278854 8.79396 0.999997 9L0.278854 8.79396L0.219986 9L0.278854 9.20604L0.999997 9C0.278854 9.20604 0.278955 9.20639 0.279064 9.20677L0.279321 9.20766L0.279976 9.20993C0.280476 9.21166 0.281103 9.21381 0.281859 9.21639C0.283369 9.22153 0.285394 9.22835 0.287944 9.2368C0.293043 9.2537 0.300248 9.2771 0.309652 9.30658C0.328456 9.36551 0.356083 9.44882 0.3933 9.55303C0.467681 9.7613 0.580683 10.0539 0.738541 10.4029C1.05342 11.0989 1.55141 12.0294 2.28526 12.9634C3.76019 14.8406 6.20917 16.75 10 16.75C10.8728 16.75 11.6744 16.6488 12.4094 16.4701L11.1214 15.1821C10.7643 15.2264 10.3907 15.25 10 15.25C6.79082 15.25 4.7398 13.6594 3.46474 12.0366C2.82358 11.2206 2.38407 10.4011 2.1052 9.78462C1.96619 9.47732 1.86825 9.22307 1.80591 9.04853C1.79986 9.03158 1.79415 9.0154 1.78877 9C1.79415 8.9846 1.79986 8.96841 1.80591 8.95147C1.86825 8.77692 1.96619 8.52267 2.1052 8.21537C2.27841 7.8325 2.51359 7.37127 2.82056 6.8812L1.73571 5.79636Z"/>
<path d="M19 9L19.7211 8.79396L19.78 9L19.7211 9.20604L19 9Z"/>
</svg>
