<svg viewBox="0 0 20 16" fill="none" xmlns="http://www.w3.org/2000/svg">
<path fill-rule="evenodd" clip-rule="evenodd" d="M10 4.75C8.20508 4.75 6.75 6.20507 6.75 8C6.75 9.79492 8.20508 11.25 10 11.25C11.7949 11.25 13.25 9.79492 13.25 8C13.25 6.20507 11.7949 4.75 10 4.75ZM8.25 8C8.25 7.0335 9.0335 6.25 10 6.25C10.9665 6.25 11.75 7.0335 11.75 8C11.75 8.9665 10.9665 9.75 10 9.75C9.0335 9.75 8.25 8.9665 8.25 8Z"/>
<path fill-rule="evenodd" clip-rule="evenodd" d="M9.99998 0.25C6.20916 0.25 3.76018 2.15944 2.28524 4.03663C1.5514 4.97062 1.05341 5.90107 0.738527 6.59712C0.580668 6.94607 0.467666 7.2387 0.393285 7.44697C0.356069 7.55117 0.328441 7.63448 0.309637 7.69342C0.300233 7.7229 0.293029 7.7463 0.287929 7.76319C0.285379 7.77164 0.283355 7.77847 0.281844 7.78361L0.281038 7.78636L0.279961 7.79006L0.279306 7.79233L0.279049 7.79323C0.27894 7.79361 0.27884 7.79396 0.999983 8L0.27884 7.79396L0.219971 8L0.27884 8.20604L0.999983 8C0.27884 8.20604 0.27894 8.20639 0.279049 8.20677L0.279306 8.20767L0.279961 8.20994C0.280461 8.21166 0.281088 8.21382 0.281844 8.21639C0.283355 8.22153 0.285379 8.22836 0.287929 8.2368C0.293029 8.2537 0.300233 8.2771 0.309637 8.30658C0.328441 8.36551 0.356069 8.44882 0.393285 8.55303C0.467666 8.7613 0.580668 9.05393 0.738527 9.40288C1.05341 10.0989 1.5514 11.0294 2.28524 11.9634C3.76018 13.8406 6.20916 15.75 9.99998 15.75C13.7908 15.75 16.2398 13.8406 17.7147 11.9634C18.4486 11.0294 18.9466 10.0989 19.2614 9.40288C19.4193 9.05393 19.5323 8.7613 19.6067 8.55303C19.6439 8.44882 19.6715 8.36551 19.6903 8.30658C19.6997 8.2771 19.7069 8.2537 19.712 8.2368C19.7146 8.22836 19.7166 8.22153 19.7181 8.21639C19.7189 8.21382 19.7195 8.21166 19.72 8.20994L19.7207 8.20767L19.7209 8.20677C19.721 8.20639 19.7211 8.20604 19 8L19.7211 8.20604L19.78 8L19.7211 7.79396L19 8C19.7211 7.79396 19.721 7.79361 19.7209 7.79323L19.7207 7.79233L19.72 7.79006C19.7195 7.78834 19.7189 7.78618 19.7181 7.78361C19.7166 7.77847 19.7146 7.77164 19.712 7.76319C19.7069 7.7463 19.6997 7.7229 19.6903 7.69342C19.6715 7.63448 19.6439 7.55117 19.6067 7.44697C19.5323 7.2387 19.4193 6.94607 19.2614 6.59712C18.9466 5.90107 18.4486 4.97062 17.7147 4.03663C16.2398 2.15944 13.7908 0.25 9.99998 0.25ZM1.8059 8.04853C1.79985 8.03158 1.79413 8.0154 1.78875 8C1.79413 7.9846 1.79985 7.96841 1.8059 7.95147C1.86824 7.77692 1.96617 7.52267 2.10519 7.21537C2.38406 6.59893 2.82357 5.77938 3.46472 4.96337C4.73979 3.34056 6.79081 1.75 9.99998 1.75C13.2092 1.75 15.2602 3.34056 16.5352 4.96337C17.1764 5.77938 17.6159 6.59893 17.8948 7.21537C18.0338 7.52267 18.1317 7.77692 18.1941 7.95147C18.2001 7.96841 18.2058 7.9846 18.2112 8C18.2058 8.0154 18.2001 8.03158 18.1941 8.04853C18.1317 8.22307 18.0338 8.47732 17.8948 8.78462C17.6159 9.40107 17.1764 10.2206 16.5352 11.0366C15.2602 12.6594 13.2092 14.25 9.99998 14.25C6.79081 14.25 4.73979 12.6594 3.46472 11.0366C2.82357 10.2206 2.38406 9.40107 2.10519 8.78462C1.96617 8.47732 1.86824 8.22307 1.8059 8.04853Z"/>
</svg>
