<svg viewBox="0 0 30 25" fill="none" xmlns="http://www.w3.org/2000/svg">
<path d="M26.25 5H6.25C5.17625 5 4.16 4.535 3.45625 3.75125C4.14375 2.98375 5.1425 2.5 6.25 2.5H28.75C29.4412 2.5 30 1.94 30 1.25C30 0.56 29.4412 0 28.75 0H6.25C2.79875 0 0 2.79875 0 6.25V18.75C0 22.2013 2.79875 25 6.25 25H26.25C28.3212 25 30 23.3213 30 21.25V8.75C30 6.67875 28.3212 5 26.25 5ZM27.5 21.25C27.5 21.9388 26.94 22.5 26.25 22.5H6.25C4.1825 22.5 2.5 20.8175 2.5 18.75V6.2475C3.5675 7.04625 4.88 7.5 6.25 7.5H26.25C26.94 7.5 27.5 8.06125 27.5 8.75V21.25ZM25 15C25 15.69 24.44 16.25 23.75 16.25C23.06 16.25 22.5 15.69 22.5 15C22.5 14.31 23.06 13.75 23.75 13.75C24.44 13.75 25 14.31 25 15Z" fill="#99B03E"/>
</svg>
