<svg viewBox="0 0 30 28" fill="none" xmlns="http://www.w3.org/2000/svg">
<path d="M27.5712 5.31541L18.3539 0.924274C16.325 -0.287648 13.7997 -0.309152 11.7503 0.868025L2.42938 5.31541C2.3944 5.33293 2.35813 5.35168 2.32438 5.37166C0.112404 6.63643 -0.655506 9.45489 0.609266 11.6669C1.03799 12.4167 1.66861 13.0311 2.42938 13.4402L5.00058 14.6652V20.79C5.0021 23.5288 6.78419 25.9484 9.39922 26.7624C11.219 27.2889 13.106 27.5466 15.0003 27.5274C16.8944 27.5486 18.7814 27.293 20.6015 26.7687C23.2165 25.9548 24.9986 23.5351 25.0001 20.7963V14.6627L27.5001 13.4677V23.7774C27.5001 24.4678 28.0597 25.0274 28.75 25.0274C29.4403 25.0274 30 24.4678 30 23.7774V8.7778C30.0083 7.31001 28.8493 5.95407 27.5712 5.31541ZM22.5001 20.7963C22.5007 22.4345 21.4379 23.8835 19.8752 24.3749C18.2905 24.8277 16.6483 25.0475 15.0003 25.0274C13.3523 25.0475 11.7101 24.8277 10.1254 24.3749C8.5627 23.8835 7.49983 22.4345 7.50048 20.7963V15.8564L11.6466 17.8314C12.6697 18.4389 13.838 18.7581 15.0278 18.7551C16.1603 18.7632 17.2737 18.4633 18.249 17.8877L22.5001 15.8564V20.7963ZM26.5 11.184L17.0728 15.6839C15.7583 16.4493 14.129 16.4276 12.8354 15.6276L3.61183 11.2403C2.58371 10.6859 2.19969 9.40298 2.75409 8.37492C2.94159 8.02724 3.22271 7.73902 3.5656 7.54285L12.9341 3.06799C14.249 2.3043 15.8774 2.32592 17.1715 3.12424L26.3887 7.51537C27.0666 7.89177 27.4907 8.60255 27.4999 9.37785C27.5012 10.1122 27.123 10.7952 26.5 11.184Z" fill="#D54746"/>
</svg>
